<svg width="40" height="52" viewBox="0 0 40 52" fill="none" xmlns="http://www.w3.org/2000/svg">
<path d="M20 28.193V26.1809C19.9982 25.4995 20.1664 24.8288 20.4888 24.2317C20.8111 23.6346 21.2771 23.1306 21.8431 22.767L38.1645 12.1409C38.7249 11.773 39.1854 11.2675 39.5036 10.6709C39.8218 10.0743 39.9875 9.40583 39.9854 8.72696V0L20 13L0.0146241 0V27.4696C-0.11427 30.8387 0.610634 34.185 2.11959 37.1864C3.62855 40.1877 5.87078 42.7432 8.63054 44.607L20 52L31.3695 44.607C34.1292 42.7432 36.3714 40.1877 37.8804 37.1864C39.3894 34.185 40.1143 30.8387 39.9854 27.4696V15.193L20 28.193Z" fill="#111111"/>
</svg>
