<svg width="173" height="42" viewBox="0 0 173 42" fill="none" xmlns="http://www.w3.org/2000/svg">
<path fill-rule="evenodd" clip-rule="evenodd" d="M35.114 6.42984C34.5616 7.02325 33.7528 7.32112 32.6056 7.32112C31.4583 7.32112 30.6073 7.02325 30.0548 6.42984C29.5 5.83408 29.2461 5.0718 29.2461 4.13829C29.2461 3.20479 29.5023 2.48238 30.0548 1.88897C30.6073 1.29556 31.4583 0.997681 32.6056 0.997681C33.7528 0.997681 34.6039 1.29556 35.114 1.88897C35.6242 2.48472 35.9227 3.24701 35.9227 4.13829C35.9227 5.02958 35.6665 5.83643 35.114 6.42984ZM24.2311 12.6665C23.2954 11.6063 22.1905 10.7995 20.9163 10.2061C19.5974 9.61268 18.4078 9.31481 16.6234 9.31481C14.8391 9.31481 13.264 9.73934 11.8628 10.5016C10.5533 11.2147 9.47191 12.3006 8.67494 13.7173V2.18686H0V6.55651H2.84698V32.8143H7.43835V27.8395C7.57941 28.196 7.73222 28.5408 7.90619 28.8692C8.71491 30.3961 9.81985 31.5407 11.2657 32.3475C12.7115 33.1544 14.3689 33.5343 16.2402 33.5343H16.2826C17.94 33.5343 19.4281 33.2365 20.747 32.6431C22.0659 32.0496 23.2131 31.2006 24.1488 30.1404C25.0845 29.0803 25.8062 27.8489 26.3163 26.4064C26.8265 24.9639 27.0804 23.437 27.0804 21.7834V20.8921C27.0804 19.2386 26.8688 17.7117 26.3587 16.3114C25.8485 14.9111 25.1691 13.7243 24.2334 12.6642L24.2311 12.6665ZM20.4484 25.0953C19.8959 26.1976 19.1742 27.0467 18.2385 27.6823C17.2605 28.318 16.1979 28.6158 14.9237 28.6158C13.8188 28.6158 12.7985 28.3602 11.8205 27.8512C10.8425 27.3845 10.0361 26.6644 9.439 25.7309C8.80189 24.7974 8.50332 23.695 8.50332 22.3792V20.6834C8.50332 19.3254 8.80189 18.1385 9.39668 17.1628C9.99146 16.1871 10.7579 15.467 11.7359 14.9581C12.7138 14.4491 13.6495 14.1934 14.9237 14.1934C16.1979 14.1934 17.3052 14.4913 18.2385 15.0847C19.1742 15.6781 19.8959 16.485 20.4484 17.5451C21.0009 18.6053 21.2571 19.8789 21.2571 21.3214C21.2571 22.7638 20.9586 23.9929 20.4484 25.0976V25.0953ZM27.291 10.0349V14.4045H30.4789V32.772H36.3045V10.0349H27.291ZM57.8168 14.0644C57.9199 14.2702 58.0164 14.4827 58.1083 14.7019V10.0349H62.742V29.3382C62.742 32.0942 62.2742 34.3435 61.2962 36.0393C60.3629 37.7374 58.8747 39.0087 56.9187 39.7733C54.9628 40.5778 52.412 40.9602 49.3511 40.9602V41.0024H42.8461V36.1237H49.3088C51.1801 36.1237 52.7106 35.9127 53.8578 35.4459C55.0051 34.9792 55.8561 34.3013 56.4086 33.3256C56.9611 32.3499 57.2173 31.163 57.2173 29.6783V28.3625L57.175 28.447C56.4109 29.9317 55.3483 31.034 53.9871 31.7987C52.6259 32.5609 51.0955 32.9433 49.3111 32.9433C47.5268 32.9433 46.3372 32.6454 45.0606 32.052C43.7864 31.4586 42.6815 30.6517 41.7881 29.6338C40.8948 28.6158 40.173 27.3868 39.6629 25.9865C39.1504 24.5863 38.8965 23.1016 38.8965 21.4902V20.5989C38.8965 18.9876 39.1527 17.5029 39.6629 16.1449C40.173 14.7446 40.8948 13.5578 41.8728 12.5398C42.8084 11.5219 43.9557 10.715 45.2746 10.1639C46.5934 9.61267 48.0393 9.31479 49.6544 9.31479C51.2694 9.31479 53.1384 9.73698 54.5419 10.5438C55.9454 11.3507 57.0081 12.5375 57.8168 14.0644ZM57.1374 21.6169C57.1374 22.9749 56.8388 24.1195 56.2863 25.053C55.7339 25.9865 55.0098 26.7066 54.0765 27.2156C53.1408 27.7245 52.1205 27.9802 51.0155 27.9802C49.7837 27.9802 48.6787 27.6823 47.743 27.1311C46.8074 26.5799 46.0433 25.7731 45.5332 24.7552C44.9807 23.7372 44.7244 22.5504 44.7244 21.1079C44.7244 19.6654 44.9807 18.4364 45.5332 17.4185C46.0856 16.3583 46.8097 15.5937 47.743 15.0003C48.721 14.4491 49.9106 14.1512 51.0155 14.1512C52.1205 14.1512 53.0985 14.3623 54.0341 14.829C54.9698 15.2958 55.6915 15.9736 56.2863 16.8649C56.8388 17.7562 57.1374 18.8586 57.1374 20.1322V21.6169ZM78.862 28.0201C79.5837 27.6378 80.1785 27.171 80.604 26.4932L80.6064 26.4955C81.0319 25.8599 81.3305 25.1398 81.4151 24.333H87.0691C86.9422 26.1578 86.432 27.7691 85.454 29.1694C84.4784 30.5696 83.2018 31.6298 81.6291 32.4366C80.0539 33.1989 78.2696 33.6235 76.229 33.6235L76.3559 33.5812C74.3576 33.5812 72.6579 33.2411 71.2121 32.5633C69.7662 31.8854 68.5767 30.9942 67.5987 29.8918C66.6207 28.787 65.899 27.5158 65.4311 26.1155C64.9633 24.7153 64.707 23.315 64.707 21.8303V21.0235C64.707 19.4966 64.9633 18.0119 65.4311 16.6116C65.9413 15.2113 66.663 13.9377 67.641 12.8354C68.619 11.733 69.8086 10.8417 71.2544 10.2061C72.7002 9.57044 74.36 9.23035 76.2713 9.23035C78.1826 9.23035 80.0539 9.61032 81.5844 10.3749C83.1572 11.1372 84.389 12.1974 85.3247 13.5977C86.2604 14.9557 86.7705 16.567 86.8975 18.3918H81.2435C81.1165 17.205 80.6064 16.2293 79.7554 15.4647C78.9043 14.7024 77.7147 14.2778 76.2689 14.2778C74.8231 14.2778 73.9321 14.5757 73.0387 15.2113C72.1877 15.8048 71.5506 16.6538 71.1251 17.7562C70.6996 18.8164 70.488 20.0478 70.488 21.4457C70.488 22.8436 70.6996 23.9905 71.0828 25.0929C71.5083 26.1953 72.1031 27.0443 72.9541 27.6378C73.8028 28.2312 74.9077 28.5713 76.2689 28.5713C77.6301 28.5713 78.1379 28.4024 78.862 28.0201ZM104.025 32.772V32.7298H103.982L104.025 32.772ZM98.0317 9.69476C100.369 9.69476 102.324 9.95042 103.897 10.586H103.9C105.472 11.1795 106.62 12.1552 107.428 13.471C108.235 14.7845 108.618 16.4826 108.618 18.6029V32.7275H104.027V28.4563C103.848 29.0193 103.622 29.5376 103.347 30.0137C102.71 31.1161 101.859 31.923 100.754 32.5164C99.6491 33.0676 98.2879 33.3655 96.7152 33.3655H96.6729C95.0154 33.3655 93.5696 33.0676 92.3377 32.4742C91.1035 31.8808 90.1255 31.0317 89.4461 29.9715C88.7667 28.8692 88.4258 27.5533 88.4258 26.0264C88.4258 24.4995 88.8489 22.9726 89.6577 21.9124C90.4664 20.8523 91.656 20.0454 93.1441 19.5364C94.6322 19.0275 96.4166 18.7296 98.4149 18.7296H103.049V18.5185C103.049 17.2027 102.708 16.227 102.071 15.5913C101.433 14.9557 100.413 14.6156 99.0943 14.6156H90.9319V9.69476H98.0317ZM100.482 28.8291L100.582 28.7847C101.262 28.4868 101.857 27.9779 102.282 27.2578C102.708 26.5354 103.006 25.5597 103.049 24.3306V22.2103H98.3303C96.9714 22.2103 95.9511 22.5504 95.227 23.186C94.5053 23.8217 94.1644 24.6707 94.1644 25.7309C94.1644 26.791 94.5053 27.5979 95.227 28.2335C95.9488 28.8692 96.9714 29.2092 98.3303 29.2092C99.6196 29.2092 99.8781 29.0952 100.482 28.8291ZM119.711 12.242C118.658 13.5156 118.011 15.2207 117.755 17.3715V10.0349H109.934V14.4045H113.121V32.7298H118.945V20.8945C118.945 18.9008 119.497 17.4161 120.56 16.3559C121.622 15.2958 123.153 14.7868 125.109 14.7868H126.724V9.73932H125.873C123.153 9.73932 121.112 10.5462 119.709 12.242H119.711ZM128.979 3.62933H134.461V10.0349H141.518V14.3201H134.461V24.6309C134.461 25.7332 134.717 26.6245 135.312 27.2179C135.907 27.8113 136.758 28.1092 137.905 28.1092H141.476V33.1145H138.204L138.246 33.0723C136.163 33.0723 134.421 32.8166 133.06 32.2654C131.699 31.7119 130.678 30.7807 129.999 29.5071C129.319 28.1913 128.979 26.451 128.979 24.2462V3.62933ZM159.546 10.8417C157.846 9.78154 155.253 9.23035 153.339 9.23035C151.426 9.23035 149.811 9.57044 148.365 10.2061C146.961 10.8417 145.772 11.733 144.794 12.8354C143.858 13.9377 143.136 15.2113 142.626 16.6116C142.158 18.0119 141.904 19.4543 141.904 20.9813V21.7881C141.904 23.2728 142.116 24.6731 142.626 26.0733C143.094 27.4736 143.816 28.7026 144.794 29.8496C145.772 30.9965 146.961 31.8854 148.449 32.5633C149.937 33.2411 151.637 33.5812 153.593 33.5812V33.539C155.464 33.539 157.164 33.1989 158.61 32.5633C160.056 31.9277 161.288 31.0364 162.223 29.8496C163.159 28.6627 163.796 27.3047 164.137 25.7356H158.782C158.57 26.5846 157.973 27.3047 157.082 27.8559C156.189 28.4071 155.041 28.705 153.595 28.705C152.15 28.705 151.002 28.4071 150.067 27.7715C149.173 27.1358 148.494 26.2868 148.026 25.1844C147.713 24.4455 147.518 23.6856 147.42 22.8084H164.563V20.7303C164.563 18.6944 164.137 16.8274 163.288 15.0894C162.48 13.349 161.205 11.9089 159.548 10.8464L159.546 10.8417ZM150.067 14.9135C150.96 14.3201 152.023 14.0222 153.339 14.0222C154.656 14.0222 155.721 14.3201 156.569 14.8713C157.42 15.4224 158.058 16.2293 158.483 17.2472C158.728 17.8313 158.899 18.5044 159.003 19.2409H147.516C147.626 18.5959 147.796 18.0025 148.024 17.4583C148.492 16.3559 149.171 15.5069 150.064 14.9135H150.067ZM164.223 6.55651V2.18686H172.895V32.7721H167.072V6.55651H164.223Z" fill="#111111"/>
</svg>
